# xmcd
#
# Track frame offsets: 
#        150
#        12710
#        26610
#        37652
#        51572
#        63462
#        73967
#        86410
#        97082
#        107022
#        119637
#        132777
#        145805
#        158955
#        170320
#        183020
#        193572
#        205127
#        221192
#        233177
#        247222
#        259710
#
# Disc length: 3572 seconds
#
# Revision: 2
# Processed by: cddbd v1.5.2PL0 Copyright (c) Steve Scherf et al.
# Submitted via: ExactAudioCopy v0.99pb4
#
DISCID=490df216
DTITLE=Elmore James - King of the Slide Guitar: The Complete Trumpet, 
DTITLE=Chief, and Fire Sessions [disc 1]
DYEAR=1997
DGENRE=Blues
TTITLE0=Dust My Broom (I Believe My Time Ain't Long)
TTITLE1=The Twelve Year Old Boy
TTITLE2=Coming Home
TTITLE3=It Hurts Me Too
TTITLE4=Knocking at Your Door
TTITLE5=Elmore's Contribution to Jazz
TTITLE6=Cry for Me Baby
TTITLE7=Take Me Where You Go
TTITLE8=Bobby's Rock
TTITLE9=The Sky Is Crying
TTITLE10=Baby Please Set a Date
TTITLE11=Held My Baby Last Night
TTITLE12=Dust My Broom
TTITLE13=Rollin' and Tumblin'
TTITLE14=I'm Worried
TTITLE15=Done Somebody Wrong
TTITLE16=Fine Little Mama
TTITLE17=I Need You (Baby)
TTITLE18=I Can't Stop Lovin' You
TTITLE19=Strange Angels
TTITLE20=Early One Morning
TTITLE21=She Done Moved
EXTD=Digitally Remasterd At Charly Studios
EXTT0=
EXTT1=
EXTT2=
EXTT3=
EXTT4=
EXTT5=
EXTT6=
EXTT7=
EXTT8=
EXTT9=
EXTT10=
EXTT11=
EXTT12=
EXTT13=
EXTT14=
EXTT15=
EXTT16=
EXTT17=
EXTT18=
EXTT19=
EXTT20=
EXTT21=
PLAYORDER=
